<svg width="309" height="106" viewBox="0 0 309 106" fill="none" xmlns="http://www.w3.org/2000/svg">
<g filter="url(#filter0_b_32_8)">
<path d="M35.52 57.08L58.56 2.36H63.456L33.888 71.576H31.2L1.536 2.36H6.72L29.76 56.888C31.36 60.792 32.352 63.48 32.736 64.952C33.248 62.904 34.176 60.28 35.52 57.08ZM76.4888 71V8.696H80.9048V71H76.4888ZM116.534 11.384C113.078 11.384 110.262 12.216 108.086 13.88C105.91 15.544 104.822 17.88 104.822 20.888C104.822 24.344 106.262 27.448 109.142 30.2C111.19 32.184 113.814 34.296 117.014 36.536C120.278 38.712 122.518 40.28 123.734 41.24C124.95 42.2 126.422 43.512 128.15 45.176C131.286 48.312 132.854 51.928 132.854 56.024C132.854 61.336 131.062 65.368 127.478 68.12C123.958 70.808 118.998 72.152 112.598 72.152C106.262 72.152 100.95 70.488 96.6615 67.16L98.9655 63.8C103.318 66.744 107.926 68.216 112.79 68.216C117.654 68.216 121.43 67.192 124.118 65.144C126.87 63.096 128.246 60.216 128.246 56.504C128.246 53.304 126.87 50.36 124.118 47.672C122.198 45.752 119.606 43.672 116.342 41.432C113.142 39.192 110.902 37.592 109.622 36.632C108.342 35.608 106.838 34.264 105.109 32.6C101.845 29.336 100.214 25.56 100.214 21.272C100.214 16.984 101.718 13.624 104.726 11.192C107.798 8.76 112.022 7.544 117.398 7.544C122.774 7.544 127.606 8.6 131.894 10.712L130.262 14.264C126.294 12.344 121.718 11.384 116.534 11.384ZM153.623 49.4L144.695 71H140.183L166.295 8.31199H168.887L195.191 71H190.295L181.271 49.4H153.623ZM167.351 15.416C166.391 18.296 165.527 20.696 164.759 22.616L155.159 45.656H179.735L170.231 22.712C168.759 19.128 167.799 16.696 167.351 15.416ZM207.833 71V8.984C213.337 8.536 218.009 8.31199 221.849 8.31199C227.737 8.31199 232.601 9.848 236.441 12.92C240.281 15.928 242.201 20.248 242.201 25.88C242.201 29.656 241.113 33.144 238.937 36.344C236.761 39.544 234.297 42.136 231.545 44.12C239.161 54.232 243.865 60.28 245.656 62.264C249.305 66.04 253.273 68.184 257.561 68.696L257.465 71.672C253.881 71.608 250.969 71.096 248.729 70.136C246.489 69.112 244.249 67.416 242.009 65.048C239.833 62.68 235.001 56.312 227.513 45.944C222.329 45.944 217.241 45.784 212.249 45.464V71H207.833ZM225.113 42.296C227.609 42.296 230.297 40.632 233.177 37.304C236.057 33.976 237.497 30.104 237.497 25.688C237.497 21.272 235.993 17.912 232.985 15.608C229.977 13.304 226.073 12.152 221.273 12.152C218.713 12.152 215.705 12.28 212.249 12.536V41.816C216.857 42.136 221.145 42.296 225.113 42.296ZM280.055 71H275.734V48.728L252.215 8.696H257.495L275.639 39.608C277.047 42.424 277.847 43.928 278.039 44.12C278.423 43.288 279.223 41.816 280.439 39.704L298.583 8.696H303.575L280.055 48.92V71Z" fill="white"/>
</g>
<path d="M9.856 89.496C10.992 89.4 12.16 89.352 13.36 89.352C14.56 89.352 15.584 89.64 16.432 90.216C17.296 90.792 17.728 91.632 17.728 92.736C17.728 93.568 17.504 94.336 17.056 95.04C16.608 95.744 16.064 96.28 15.424 96.648C16.464 96.952 17.328 97.496 18.016 98.28C18.704 99.064 19.048 99.952 19.048 100.944C19.048 102.32 18.608 103.36 17.728 104.064C16.864 104.768 15.64 105.12 14.056 105.12C12.472 105.12 11.072 105.064 9.856 104.952V89.496ZM12.04 97.128L10.96 97.152V104.04C11.648 104.104 12.76 104.136 14.296 104.136C15.336 104.136 16.192 103.848 16.864 103.272C17.552 102.68 17.896 101.944 17.896 101.064C17.896 100.168 17.552 99.392 16.864 98.736C16.192 98.064 15.312 97.592 14.224 97.32C13.664 97.192 12.936 97.128 12.04 97.128ZM16.648 92.712C16.648 91.928 16.32 91.328 15.664 90.912C15.008 90.48 14.224 90.264 13.312 90.264C12.4 90.264 11.616 90.288 10.96 90.336V96.216C12.352 96.216 13.464 96.256 14.296 96.336C14.92 96 15.464 95.512 15.928 94.872C16.408 94.216 16.648 93.496 16.648 92.712ZM23.6144 105V89.424H24.7184V105H23.6144ZM30.4576 89.496C31.5936 89.4 32.7616 89.352 33.9616 89.352C35.1616 89.352 36.1856 89.64 37.0336 90.216C37.8976 90.792 38.3296 91.632 38.3296 92.736C38.3296 93.568 38.1056 94.336 37.6576 95.04C37.2096 95.744 36.6656 96.28 36.0256 96.648C37.0656 96.952 37.9296 97.496 38.6176 98.28C39.3056 99.064 39.6496 99.952 39.6496 100.944C39.6496 102.32 39.2096 103.36 38.3296 104.064C37.4656 104.768 36.2416 105.12 34.6576 105.12C33.0736 105.12 31.6736 105.064 30.4576 104.952V89.496ZM32.6416 97.128L31.5616 97.152V104.04C32.2496 104.104 33.3616 104.136 34.8976 104.136C35.9376 104.136 36.7936 103.848 37.4656 103.272C38.1536 102.68 38.4976 101.944 38.4976 101.064C38.4976 100.168 38.1536 99.392 37.4656 98.736C36.7936 98.064 35.9136 97.592 34.8256 97.32C34.2656 97.192 33.5376 97.128 32.6416 97.128ZM37.2496 92.712C37.2496 91.928 36.9216 91.328 36.2656 90.912C35.6096 90.48 34.8256 90.264 33.9136 90.264C33.0016 90.264 32.2176 90.288 31.5616 90.336V96.216C32.9536 96.216 34.0656 96.256 34.8976 96.336C35.5216 96 36.0656 95.512 36.5296 94.872C37.0096 94.216 37.2496 93.496 37.2496 92.712ZM44.2159 105V89.424H45.3199V103.992H52.4719V105H44.2159ZM55.7472 105V89.424H56.8512V105H55.7472ZM69.5024 105.24C67.2784 105.24 65.4144 104.464 63.9104 102.912C62.4064 101.36 61.6544 99.464 61.6544 97.224C61.6544 94.968 62.4064 93.064 63.9104 91.512C65.4144 89.96 67.2784 89.184 69.5024 89.184C71.7264 89.184 73.5904 89.96 75.0944 91.512C76.5984 93.064 77.3504 94.968 77.3504 97.224C77.3504 99.464 76.5984 101.36 75.0944 102.912C73.5904 104.464 71.7264 105.24 69.5024 105.24ZM69.5024 90.168C67.5824 90.168 65.9824 90.848 64.7024 92.208C63.4384 93.568 62.8064 95.24 62.8064 97.224C62.8064 99.192 63.4384 100.856 64.7024 102.216C65.9824 103.56 67.5824 104.232 69.5024 104.232C71.4384 104.232 73.0384 103.56 74.3024 102.216C75.5664 100.856 76.1984 99.192 76.1984 97.224C76.1984 95.24 75.5664 93.568 74.3024 92.208C73.0384 90.848 71.4384 90.168 69.5024 90.168ZM84.4062 90.408H79.1262V89.424H90.7662V90.408H85.4862V105H84.4062V90.408ZM94.0206 105V89.424H101.293V90.384H95.1246V96.048H100.693V96.984H95.1246V103.992H101.533V105H94.0206ZM118.07 104.232C116.87 104.904 115.198 105.24 113.054 105.24C110.926 105.24 109.046 104.472 107.414 102.936C105.798 101.4 104.99 99.496 104.99 97.224C104.99 94.936 105.694 93.024 107.102 91.488C108.526 89.952 110.358 89.184 112.598 89.184C114.406 89.184 116.174 89.464 117.902 90.024L117.614 90.936C115.95 90.424 114.23 90.168 112.454 90.168C110.678 90.168 109.182 90.848 107.966 92.208C106.766 93.552 106.166 95.208 106.166 97.176C106.166 99.128 106.862 100.792 108.254 102.168C109.662 103.544 111.286 104.232 113.126 104.232C114.966 104.232 116.494 103.976 117.71 103.464L118.07 104.232ZM122.773 99.6L120.541 105H119.413L125.941 89.328H126.589L133.165 105H131.941L129.685 99.6H122.773ZM126.205 91.104C125.965 91.824 125.749 92.424 125.557 92.904L123.157 98.664H129.301L126.925 92.928C126.557 92.032 126.317 91.424 126.205 91.104ZM149.966 104.184C152.014 104.184 153.654 103.632 154.886 102.528C156.134 101.424 156.758 99.76 156.758 97.536C156.758 95.312 156.054 93.544 154.646 92.232C153.254 90.92 151.534 90.264 149.486 90.264C148.03 90.264 146.91 90.296 146.126 90.36V104.016C147.086 104.128 148.366 104.184 149.966 104.184ZM149.486 89.28C151.886 89.28 153.886 90.024 155.486 91.512C157.102 92.984 157.91 94.992 157.91 97.536C157.91 100.08 157.166 101.992 155.678 103.272C154.206 104.552 152.302 105.192 149.966 105.192C148.35 105.192 146.686 105.112 144.974 104.952V89.424C146.254 89.328 147.758 89.28 149.486 89.28ZM162.716 105V89.424H169.988V90.384H163.82V96.048H169.388V96.984H163.82V103.992H170.228V105H162.716ZM195.414 104.232C194.214 104.904 192.542 105.24 190.398 105.24C188.27 105.24 186.39 104.472 184.758 102.936C183.142 101.4 182.334 99.496 182.334 97.224C182.334 94.936 183.038 93.024 184.446 91.488C185.87 89.952 187.702 89.184 189.942 89.184C191.75 89.184 193.518 89.464 195.246 90.024L194.958 90.936C193.294 90.424 191.574 90.168 189.798 90.168C188.022 90.168 186.526 90.848 185.31 92.208C184.11 93.552 183.51 95.208 183.51 97.176C183.51 99.128 184.206 100.792 185.598 102.168C187.006 103.544 188.63 104.232 190.47 104.232C192.31 104.232 193.838 103.976 195.054 103.464L195.414 104.232ZM199.349 105V89.424H200.453V103.992H207.605V105H199.349ZM211.648 99.6L209.416 105H208.288L214.816 89.328H215.464L222.04 105H220.816L218.56 99.6H211.648ZM215.08 91.104C214.84 91.824 214.624 92.424 214.432 92.904L212.032 98.664H218.176L215.8 92.928C215.432 92.032 215.192 91.424 215.08 91.104ZM218.152 86.904L214.648 88.176L213.832 87.936L218.008 85.632L218.152 86.904ZM228.344 90.096C227.48 90.096 226.776 90.304 226.232 90.72C225.688 91.136 225.416 91.72 225.416 92.472C225.416 93.336 225.776 94.112 226.496 94.8C227.008 95.296 227.664 95.824 228.464 96.384C229.28 96.928 229.84 97.32 230.144 97.56C230.448 97.8 230.816 98.128 231.248 98.544C232.032 99.328 232.424 100.232 232.424 101.256C232.424 102.584 231.976 103.592 231.08 104.28C230.2 104.952 228.96 105.288 227.36 105.288C225.776 105.288 224.448 104.872 223.376 104.04L223.952 103.2C225.04 103.936 226.192 104.304 227.408 104.304C228.624 104.304 229.568 104.048 230.24 103.536C230.928 103.024 231.272 102.304 231.272 101.376C231.272 100.576 230.928 99.84 230.24 99.168C229.76 98.688 229.112 98.168 228.296 97.608C227.496 97.048 226.936 96.648 226.616 96.408C226.296 96.152 225.92 95.816 225.488 95.4C224.672 94.584 224.264 93.64 224.264 92.568C224.264 91.496 224.64 90.656 225.392 90.048C226.16 89.44 227.216 89.136 228.56 89.136C229.904 89.136 231.112 89.4 232.184 89.928L231.776 90.816C230.784 90.336 229.64 90.096 228.344 90.096ZM239.993 90.096C239.129 90.096 238.425 90.304 237.881 90.72C237.337 91.136 237.065 91.72 237.065 92.472C237.065 93.336 237.425 94.112 238.145 94.8C238.657 95.296 239.313 95.824 240.113 96.384C240.929 96.928 241.489 97.32 241.793 97.56C242.097 97.8 242.465 98.128 242.897 98.544C243.681 99.328 244.073 100.232 244.073 101.256C244.073 102.584 243.625 103.592 242.729 104.28C241.849 104.952 240.609 105.288 239.009 105.288C237.425 105.288 236.097 104.872 235.025 104.04L235.601 103.2C236.689 103.936 237.841 104.304 239.057 104.304C240.273 104.304 241.217 104.048 241.889 103.536C242.577 103.024 242.921 102.304 242.921 101.376C242.921 100.576 242.577 99.84 241.889 99.168C241.409 98.688 240.761 98.168 239.945 97.608C239.145 97.048 238.585 96.648 238.265 96.408C237.945 96.152 237.569 95.816 237.137 95.4C236.321 94.584 235.913 93.64 235.913 92.568C235.913 91.496 236.289 90.656 237.041 90.048C237.809 89.44 238.865 89.136 240.209 89.136C241.553 89.136 242.761 89.4 243.833 89.928L243.425 90.816C242.433 90.336 241.289 90.096 239.993 90.096ZM248.497 105V89.424H249.601V105H248.497ZM267.484 104.232C266.284 104.904 264.612 105.24 262.468 105.24C260.34 105.24 258.46 104.472 256.828 102.936C255.212 101.4 254.404 99.496 254.404 97.224C254.404 94.936 255.108 93.024 256.516 91.488C257.94 89.952 259.772 89.184 262.012 89.184C263.82 89.184 265.588 89.464 267.316 90.024L267.028 90.936C265.364 90.424 263.644 90.168 261.868 90.168C260.092 90.168 258.596 90.848 257.38 92.208C256.18 93.552 255.58 95.208 255.58 97.176C255.58 99.128 256.276 100.792 257.668 102.168C259.076 103.544 260.7 104.232 262.54 104.232C264.38 104.232 265.908 103.976 267.124 103.464L267.484 104.232ZM278.073 105.24C275.849 105.24 273.985 104.464 272.481 102.912C270.977 101.36 270.225 99.464 270.225 97.224C270.225 94.968 270.977 93.064 272.481 91.512C273.985 89.96 275.849 89.184 278.073 89.184C280.297 89.184 282.161 89.96 283.665 91.512C285.169 93.064 285.921 94.968 285.921 97.224C285.921 99.464 285.169 101.36 283.665 102.912C282.161 104.464 280.297 105.24 278.073 105.24ZM278.073 90.168C276.153 90.168 274.553 90.848 273.273 92.208C272.009 93.568 271.377 95.24 271.377 97.224C271.377 99.192 272.009 100.856 273.273 102.216C274.553 103.56 276.153 104.232 278.073 104.232C280.009 104.232 281.609 103.56 282.873 102.216C284.137 100.856 284.769 99.192 284.769 97.224C284.769 95.24 284.137 93.568 282.873 92.208C281.609 90.848 280.009 90.168 278.073 90.168ZM293.876 90.096C293.012 90.096 292.308 90.304 291.764 90.72C291.22 91.136 290.948 91.72 290.948 92.472C290.948 93.336 291.308 94.112 292.028 94.8C292.54 95.296 293.196 95.824 293.996 96.384C294.812 96.928 295.372 97.32 295.676 97.56C295.98 97.8 296.348 98.128 296.78 98.544C297.564 99.328 297.956 100.232 297.956 101.256C297.956 102.584 297.508 103.592 296.612 104.28C295.732 104.952 294.492 105.288 292.892 105.288C291.308 105.288 289.98 104.872 288.908 104.04L289.484 103.2C290.572 103.936 291.724 104.304 292.94 104.304C294.156 104.304 295.1 104.048 295.772 103.536C296.46 103.024 296.804 102.304 296.804 101.376C296.804 100.576 296.46 99.84 295.772 99.168C295.292 98.688 294.644 98.168 293.828 97.608C293.028 97.048 292.468 96.648 292.148 96.408C291.828 96.152 291.452 95.816 291.02 95.4C290.204 94.584 289.796 93.64 289.796 92.568C289.796 91.496 290.172 90.656 290.924 90.048C291.692 89.44 292.748 89.136 294.092 89.136C295.436 89.136 296.644 89.4 297.716 89.928L297.308 90.816C296.316 90.336 295.172 90.096 293.876 90.096Z" fill="white"/>
<line y1="81.5" x2="309" y2="81.5" stroke="white"/>
<defs>
<filter id="filter0_b_32_8" x="-2.46399" y="-1.64001" width="310.038" height="77.792" filterUnits="userSpaceOnUse" color-interpolation-filters="sRGB">
<feFlood flood-opacity="0" result="BackgroundImageFix"/>
<feGaussianBlur in="BackgroundImageFix" stdDeviation="2"/>
<feComposite in2="SourceAlpha" operator="in" result="effect1_backgroundBlur_32_8"/>
<feBlend mode="normal" in="SourceGraphic" in2="effect1_backgroundBlur_32_8" result="shape"/>
</filter>
</defs>
</svg>
